<mxfile host="app.diagrams.net" modified="2023-08-10T16:52:53.862Z" agent="Mozilla/5.0 (Windows NT 10.0; Win64; x64) AppleWebKit/537.36 (KHTML, like Gecko) Chrome/115.0.0.0 Safari/537.36" etag="0YI8R1OCwGckRX0agg2m" version="21.6.8" type="github" pages="2">
  <diagram name="Page-1" id="jn59hcqH0G2jB5gu1mcZ">
    <mxGraphModel dx="1034" dy="424" grid="1" gridSize="10" guides="1" tooltips="1" connect="1" arrows="1" fold="1" page="1" pageScale="1" pageWidth="850" pageHeight="1100" math="0" shadow="0">
      <root>
        <mxCell id="0" />
        <mxCell id="1" parent="0" />
        <mxCell id="KVumISXjDkxcDWmkhso_-1" value="API Gateway" style="rounded=1;whiteSpace=wrap;html=1;" vertex="1" parent="1">
          <mxGeometry x="80" y="170" width="50" height="220" as="geometry" />
        </mxCell>
        <mxCell id="KVumISXjDkxcDWmkhso_-3" value="Student Service" style="rounded=1;whiteSpace=wrap;html=1;" vertex="1" parent="1">
          <mxGeometry x="240" y="130" width="140" height="70" as="geometry" />
        </mxCell>
        <mxCell id="KVumISXjDkxcDWmkhso_-4" value="Fees Service" style="rounded=1;whiteSpace=wrap;html=1;" vertex="1" parent="1">
          <mxGeometry x="240" y="240" width="140" height="70" as="geometry" />
        </mxCell>
        <mxCell id="KVumISXjDkxcDWmkhso_-5" value="Payment Service" style="rounded=1;whiteSpace=wrap;html=1;" vertex="1" parent="1">
          <mxGeometry x="240" y="350" width="140" height="70" as="geometry" />
        </mxCell>
        <mxCell id="KVumISXjDkxcDWmkhso_-6" value="DB" style="shape=cylinder3;whiteSpace=wrap;html=1;boundedLbl=1;backgroundOutline=1;size=15;" vertex="1" parent="1">
          <mxGeometry x="388" y="130" width="37.5" height="50" as="geometry" />
        </mxCell>
        <mxCell id="KVumISXjDkxcDWmkhso_-7" value="DB" style="shape=cylinder3;whiteSpace=wrap;html=1;boundedLbl=1;backgroundOutline=1;size=15;" vertex="1" parent="1">
          <mxGeometry x="388" y="260" width="37.5" height="50" as="geometry" />
        </mxCell>
        <mxCell id="KVumISXjDkxcDWmkhso_-8" value="Message Broker" style="rounded=0;whiteSpace=wrap;html=1;" vertex="1" parent="1">
          <mxGeometry x="520" y="150" width="70" height="250" as="geometry" />
        </mxCell>
        <mxCell id="KVumISXjDkxcDWmkhso_-9" value="" style="endArrow=classic;html=1;rounded=0;" edge="1" parent="1">
          <mxGeometry width="50" height="50" relative="1" as="geometry">
            <mxPoint x="200" y="170" as="sourcePoint" />
            <mxPoint x="240" y="170" as="targetPoint" />
            <Array as="points">
              <mxPoint x="220" y="170" />
            </Array>
          </mxGeometry>
        </mxCell>
        <mxCell id="KVumISXjDkxcDWmkhso_-10" value="" style="endArrow=classic;html=1;rounded=0;" edge="1" parent="1">
          <mxGeometry width="50" height="50" relative="1" as="geometry">
            <mxPoint x="200" y="279.5" as="sourcePoint" />
            <mxPoint x="240" y="279.5" as="targetPoint" />
            <Array as="points">
              <mxPoint x="220" y="279.5" />
            </Array>
          </mxGeometry>
        </mxCell>
        <mxCell id="KVumISXjDkxcDWmkhso_-11" value="" style="endArrow=classic;html=1;rounded=0;" edge="1" parent="1">
          <mxGeometry width="50" height="50" relative="1" as="geometry">
            <mxPoint x="200" y="390" as="sourcePoint" />
            <mxPoint x="240" y="390" as="targetPoint" />
            <Array as="points">
              <mxPoint x="220" y="390" />
            </Array>
          </mxGeometry>
        </mxCell>
        <mxCell id="KVumISXjDkxcDWmkhso_-12" value="" style="endArrow=none;html=1;rounded=0;" edge="1" parent="1">
          <mxGeometry width="50" height="50" relative="1" as="geometry">
            <mxPoint x="200" y="390" as="sourcePoint" />
            <mxPoint x="200" y="170" as="targetPoint" />
          </mxGeometry>
        </mxCell>
        <mxCell id="KVumISXjDkxcDWmkhso_-13" value="" style="endArrow=none;html=1;rounded=0;exitX=1;exitY=0.5;exitDx=0;exitDy=0;" edge="1" parent="1" source="KVumISXjDkxcDWmkhso_-1">
          <mxGeometry width="50" height="50" relative="1" as="geometry">
            <mxPoint x="150" y="305" as="sourcePoint" />
            <mxPoint x="200" y="280" as="targetPoint" />
          </mxGeometry>
        </mxCell>
        <mxCell id="KVumISXjDkxcDWmkhso_-14" value="" style="endArrow=classic;html=1;rounded=0;exitX=1.024;exitY=0.867;exitDx=0;exitDy=0;exitPerimeter=0;entryX=0;entryY=0.163;entryDx=0;entryDy=0;entryPerimeter=0;" edge="1" parent="1" source="KVumISXjDkxcDWmkhso_-3" target="KVumISXjDkxcDWmkhso_-8">
          <mxGeometry width="50" height="50" relative="1" as="geometry">
            <mxPoint x="390" y="187" as="sourcePoint" />
            <mxPoint x="516" y="187" as="targetPoint" />
          </mxGeometry>
        </mxCell>
        <mxCell id="KVumISXjDkxcDWmkhso_-15" value="" style="endArrow=classic;html=1;rounded=0;exitX=1.024;exitY=0.867;exitDx=0;exitDy=0;exitPerimeter=0;entryX=0;entryY=0.163;entryDx=0;entryDy=0;entryPerimeter=0;" edge="1" parent="1">
          <mxGeometry width="50" height="50" relative="1" as="geometry">
            <mxPoint x="383" y="255" as="sourcePoint" />
            <mxPoint x="520" y="255" as="targetPoint" />
          </mxGeometry>
        </mxCell>
        <mxCell id="KVumISXjDkxcDWmkhso_-16" value="" style="endArrow=classic;html=1;rounded=0;exitX=1.024;exitY=0.867;exitDx=0;exitDy=0;exitPerimeter=0;entryX=0;entryY=0.163;entryDx=0;entryDy=0;entryPerimeter=0;" edge="1" parent="1">
          <mxGeometry width="50" height="50" relative="1" as="geometry">
            <mxPoint x="520" y="384.5" as="sourcePoint" />
            <mxPoint x="383" y="384.5" as="targetPoint" />
          </mxGeometry>
        </mxCell>
      </root>
    </mxGraphModel>
  </diagram>
  <diagram id="TLIjEoQNjLV_tYfjU4ay" name="Page-2">
    <mxGraphModel dx="1034" dy="424" grid="1" gridSize="10" guides="1" tooltips="1" connect="1" arrows="1" fold="1" page="1" pageScale="1" pageWidth="850" pageHeight="1100" math="0" shadow="0">
      <root>
        <mxCell id="0" />
        <mxCell id="1" parent="0" />
        <mxCell id="9y8F20XEl7rROfcdrMp9-1" value="" style="endArrow=none;dashed=1;html=1;rounded=0;" edge="1" parent="1">
          <mxGeometry width="50" height="50" relative="1" as="geometry">
            <mxPoint x="40" y="40" as="sourcePoint" />
            <mxPoint x="160" y="40" as="targetPoint" />
          </mxGeometry>
        </mxCell>
        <mxCell id="9y8F20XEl7rROfcdrMp9-2" value="" style="endArrow=none;dashed=1;html=1;rounded=0;" edge="1" parent="1">
          <mxGeometry width="50" height="50" relative="1" as="geometry">
            <mxPoint x="40" y="400" as="sourcePoint" />
            <mxPoint x="40" y="40" as="targetPoint" />
          </mxGeometry>
        </mxCell>
        <mxCell id="9y8F20XEl7rROfcdrMp9-3" value="" style="endArrow=none;dashed=1;html=1;rounded=0;" edge="1" parent="1">
          <mxGeometry width="50" height="50" relative="1" as="geometry">
            <mxPoint x="160" y="400" as="sourcePoint" />
            <mxPoint x="160" y="40" as="targetPoint" />
          </mxGeometry>
        </mxCell>
        <mxCell id="9y8F20XEl7rROfcdrMp9-4" value="" style="endArrow=none;dashed=1;html=1;rounded=0;" edge="1" parent="1">
          <mxGeometry width="50" height="50" relative="1" as="geometry">
            <mxPoint x="40" y="400" as="sourcePoint" />
            <mxPoint x="160" y="400" as="targetPoint" />
          </mxGeometry>
        </mxCell>
        <mxCell id="9y8F20XEl7rROfcdrMp9-5" value="" style="endArrow=none;dashed=1;html=1;rounded=0;" edge="1" parent="1">
          <mxGeometry width="50" height="50" relative="1" as="geometry">
            <mxPoint x="240" y="400" as="sourcePoint" />
            <mxPoint x="240" y="40" as="targetPoint" />
          </mxGeometry>
        </mxCell>
        <mxCell id="9y8F20XEl7rROfcdrMp9-6" value="" style="endArrow=none;dashed=1;html=1;rounded=0;" edge="1" parent="1">
          <mxGeometry width="50" height="50" relative="1" as="geometry">
            <mxPoint x="840" y="400" as="sourcePoint" />
            <mxPoint x="840" y="40" as="targetPoint" />
          </mxGeometry>
        </mxCell>
        <mxCell id="9y8F20XEl7rROfcdrMp9-7" value="" style="endArrow=none;dashed=1;html=1;dashPattern=1 3;strokeWidth=2;rounded=0;" edge="1" parent="1">
          <mxGeometry width="50" height="50" relative="1" as="geometry">
            <mxPoint x="240" y="40" as="sourcePoint" />
            <mxPoint x="840" y="40" as="targetPoint" />
          </mxGeometry>
        </mxCell>
        <mxCell id="9y8F20XEl7rROfcdrMp9-8" value="" style="endArrow=none;dashed=1;html=1;dashPattern=1 3;strokeWidth=2;rounded=0;" edge="1" parent="1">
          <mxGeometry width="50" height="50" relative="1" as="geometry">
            <mxPoint x="240" y="400" as="sourcePoint" />
            <mxPoint x="840" y="400" as="targetPoint" />
          </mxGeometry>
        </mxCell>
        <mxCell id="EwDw2edjSimYetYMnFHi-1" value="API Gateway" style="rounded=1;whiteSpace=wrap;html=1;" vertex="1" parent="1">
          <mxGeometry x="280" y="80" width="50" height="280" as="geometry" />
        </mxCell>
        <mxCell id="6CjpfWdCH3bPb4ilLrKr-1" value="Fees Service" style="rounded=1;whiteSpace=wrap;html=1;" vertex="1" parent="1">
          <mxGeometry x="400" y="185" width="140" height="70" as="geometry" />
        </mxCell>
        <mxCell id="6CjpfWdCH3bPb4ilLrKr-2" value="Payment Service" style="rounded=1;whiteSpace=wrap;html=1;" vertex="1" parent="1">
          <mxGeometry x="400" y="290" width="140" height="70" as="geometry" />
        </mxCell>
        <mxCell id="6CjpfWdCH3bPb4ilLrKr-3" value="DB" style="shape=cylinder3;whiteSpace=wrap;html=1;boundedLbl=1;backgroundOutline=1;size=15;" vertex="1" parent="1">
          <mxGeometry x="548" y="205" width="37.5" height="50" as="geometry" />
        </mxCell>
        <mxCell id="6CjpfWdCH3bPb4ilLrKr-4" value="Message Broker" style="rounded=0;whiteSpace=wrap;html=1;" vertex="1" parent="1">
          <mxGeometry x="685" y="90" width="70" height="250" as="geometry" />
        </mxCell>
        <mxCell id="6CjpfWdCH3bPb4ilLrKr-5" value="" style="endArrow=classic;html=1;rounded=0;exitX=0.995;exitY=0.867;exitDx=0;exitDy=0;entryX=0;entryY=0.163;entryDx=0;entryDy=0;entryPerimeter=0;exitPerimeter=0;" edge="1" parent="1" source="k233fXRIHFFiw8kQzl4h-1">
          <mxGeometry width="50" height="50" relative="1" as="geometry">
            <mxPoint x="548" y="140.25" as="sourcePoint" />
            <mxPoint x="685" y="140" as="targetPoint" />
          </mxGeometry>
        </mxCell>
        <mxCell id="6CjpfWdCH3bPb4ilLrKr-6" value="" style="endArrow=classic;html=1;rounded=0;exitX=1.019;exitY=0.148;exitDx=0;exitDy=0;exitPerimeter=0;entryX=0;entryY=0.163;entryDx=0;entryDy=0;entryPerimeter=0;" edge="1" parent="1" source="6CjpfWdCH3bPb4ilLrKr-1">
          <mxGeometry width="50" height="50" relative="1" as="geometry">
            <mxPoint x="548" y="195" as="sourcePoint" />
            <mxPoint x="685" y="195" as="targetPoint" />
          </mxGeometry>
        </mxCell>
        <mxCell id="6CjpfWdCH3bPb4ilLrKr-7" value="" style="endArrow=classic;html=1;rounded=0;exitX=1.024;exitY=0.867;exitDx=0;exitDy=0;exitPerimeter=0;entryX=1;entryY=0.5;entryDx=0;entryDy=0;" edge="1" parent="1" target="6CjpfWdCH3bPb4ilLrKr-2">
          <mxGeometry width="50" height="50" relative="1" as="geometry">
            <mxPoint x="685" y="324.5" as="sourcePoint" />
            <mxPoint x="548" y="324.5" as="targetPoint" />
          </mxGeometry>
        </mxCell>
        <mxCell id="k233fXRIHFFiw8kQzl4h-1" value="Student Service" style="rounded=1;whiteSpace=wrap;html=1;" vertex="1" parent="1">
          <mxGeometry x="400" y="80" width="140" height="70" as="geometry" />
        </mxCell>
        <mxCell id="k233fXRIHFFiw8kQzl4h-2" value="DB" style="shape=cylinder3;whiteSpace=wrap;html=1;boundedLbl=1;backgroundOutline=1;size=15;" vertex="1" parent="1">
          <mxGeometry x="548" y="80" width="37.5" height="50" as="geometry" />
        </mxCell>
        <mxCell id="gT6cNkpCqqdaCoQECcCD-1" value="" style="endArrow=classic;html=1;rounded=0;" edge="1" parent="1">
          <mxGeometry width="50" height="50" relative="1" as="geometry">
            <mxPoint x="360" y="100" as="sourcePoint" />
            <mxPoint x="400" y="100" as="targetPoint" />
            <Array as="points">
              <mxPoint x="380" y="100" />
            </Array>
          </mxGeometry>
        </mxCell>
        <mxCell id="gT6cNkpCqqdaCoQECcCD-2" value="" style="endArrow=classic;html=1;rounded=0;" edge="1" parent="1">
          <mxGeometry width="50" height="50" relative="1" as="geometry">
            <mxPoint x="330" y="210" as="sourcePoint" />
            <mxPoint x="400" y="209.5" as="targetPoint" />
            <Array as="points">
              <mxPoint x="380" y="209.5" />
            </Array>
          </mxGeometry>
        </mxCell>
        <mxCell id="gT6cNkpCqqdaCoQECcCD-3" value="" style="endArrow=classic;html=1;rounded=0;" edge="1" parent="1">
          <mxGeometry width="50" height="50" relative="1" as="geometry">
            <mxPoint x="360" y="320" as="sourcePoint" />
            <mxPoint x="400" y="320" as="targetPoint" />
            <Array as="points">
              <mxPoint x="380" y="320" />
            </Array>
          </mxGeometry>
        </mxCell>
        <mxCell id="gT6cNkpCqqdaCoQECcCD-4" value="" style="endArrow=none;html=1;rounded=0;" edge="1" parent="1">
          <mxGeometry width="50" height="50" relative="1" as="geometry">
            <mxPoint x="360" y="320" as="sourcePoint" />
            <mxPoint x="360" y="100" as="targetPoint" />
          </mxGeometry>
        </mxCell>
      </root>
    </mxGraphModel>
  </diagram>
</mxfile>
